<svg xmlns="http://www.w3.org/2000/svg" width="12.25" height="14" viewBox="0 0 12.25 14">
  <g id="Delete_02" transform="translate(-2 -0.001)">
    <path id="Path_29" data-name="Path 29" d="M14.241,2.984a1.308,1.308,0,0,0-1.3-1.232H11.625V1.314h0A1.313,1.313,0,0,0,10.312,0H5.937A1.312,1.312,0,0,0,4.625,1.313h0v.437H3.312a1.308,1.308,0,0,0-1.3,1.232H2v.955a.875.875,0,0,0,.875.875h0v7.437A1.75,1.75,0,0,0,4.625,14h7a1.75,1.75,0,0,0,1.75-1.75V4.813h0a.875.875,0,0,0,.875-.875V2.984ZM5.5,1.314A.437.437,0,0,1,5.937.876h4.375a.437.437,0,0,1,.437.437v.437H5.5Zm7,10.937a.876.876,0,0,1-.875.875h-7a.876.876,0,0,1-.875-.875V4.814H12.5Zm.875-8.75v.437H2.875V3.064a.437.437,0,0,1,.437-.437h9.625a.437.437,0,0,1,.438.437Z" fill="#3b7fb8" fill-rule="evenodd"/>
    <path id="Path_30" data-name="Path 30" d="M8.438,19.568h.875a.437.437,0,0,0,.437-.437V13.444a.437.437,0,0,0-.437-.437H8.438A.437.437,0,0,0,8,13.444v5.687A.437.437,0,0,0,8.438,19.568Zm0-6.125h.875v5.687H8.438Z" transform="translate(-3.375 -7.315)" fill="#3b7fb8" fill-rule="evenodd"/>
    <path id="Path_31" data-name="Path 31" d="M14.437,19.568h.875a.437.437,0,0,0,.438-.437V13.444a.437.437,0,0,0-.437-.437h-.875a.437.437,0,0,0-.437.438v5.687A.437.437,0,0,0,14.437,19.568Zm0-6.125h.875v5.687h-.875Z" transform="translate(-6.75 -7.315)" fill="#3b7fb8" fill-rule="evenodd"/>
    <path id="Path_32" data-name="Path 32" d="M20.437,19.568h.875a.437.437,0,0,0,.438-.437V13.444a.437.437,0,0,0-.437-.437h-.875a.437.437,0,0,0-.437.438v5.687A.437.437,0,0,0,20.437,19.568Zm0-6.125h.875v5.687h-.875Z" transform="translate(-10.125 -7.315)" fill="#3b7fb8" fill-rule="evenodd"/>
  </g>
</svg>
