<svg xmlns="http://www.w3.org/2000/svg" width="61.938" height="65.912" viewBox="0 0 61.938 65.912">
  <g id="ingenico_-cs-2_" data-name="ingenico(-cs-2)" transform="translate(-259.371 -137.392)">
    <g id="Group_76" data-name="Group 76" transform="translate(260.073 156.005)">
      <path id="Path_61" data-name="Path 61" d="M270.1,108.012q.152-.828.282-1.56c.775.092,1.516.2,2.261.261a4.124,4.124,0,0,0,.983-.046,1.374,1.374,0,0,0,1.322-1.458c.017-.223,0-.448,0-.668a4.446,4.446,0,0,1-.982.417c-2.032.328-3.9-.333-4.327-2.766a6.652,6.652,0,0,1,.14-3.3,3.9,3.9,0,0,1,3.656-2.721,17.121,17.121,0,0,1,3.245.308c.055.009.106.1.139.161.021.04.005.1.005.152V105.1a3.47,3.47,0,0,1-.254,1.435,3.168,3.168,0,0,1-2.475,1.826,8.335,8.335,0,0,1-3.51-.219C270.433,108.112,270.281,108.063,270.1,108.012Zm4.847-7.5c0-.777,0-1.554,0-2.33,0-.183-.059-.26-.244-.265-.406-.011-.811-.06-1.212-.051a1.887,1.887,0,0,0-1.836,1.271,4.455,4.455,0,0,0-.015,3.122,1.69,1.69,0,0,0,1.461,1.163,2.8,2.8,0,0,0,1.638-.3.312.312,0,0,0,.208-.328C274.943,102.036,274.947,101.275,274.947,100.515Z" transform="translate(-256.006 -61.861)" stroke="#000" stroke-width="1.4"/>
      <path id="Path_62" data-name="Path 62" d="M92.62,10h33.921c.342,0,.343,0,.343.345,0,.312-.009.626,0,.938.008.192-.066.263-.254.241a1.8,1.8,0,0,0-.2,0H92.62Z" transform="translate(-88.095 19.932)" stroke="#000" stroke-width="1.4"/>
      <path id="Path_63" data-name="Path 63" d="M457.029,100.187h-5.193a1.747,1.747,0,0,0,1.369,2.084,7.486,7.486,0,0,0,2.345.027c.309-.031.617-.081.963-.127.095.513.189,1.022.294,1.587-.37.068-.719.152-1.073.195a10.455,10.455,0,0,1-2.8.038,3.055,3.055,0,0,1-2.9-2.738,7.524,7.524,0,0,1,.169-3.731,3.233,3.233,0,0,1,3.137-2.389,6.013,6.013,0,0,1,1.26.063,2.556,2.556,0,0,1,1.927,1.485A7.463,7.463,0,0,1,457.029,100.187Zm-1.975-1.451a2.414,2.414,0,0,0-.274-1.348,1.271,1.271,0,0,0-.936-.7,1.823,1.823,0,0,0-1.969,2.052Z" transform="translate(-427.232 -60.874)" stroke="#000" stroke-width="1"/>
      <path id="Path_64" data-name="Path 64" d="M1044.715,93.41a14.837,14.837,0,0,1,1.575.332,2.845,2.845,0,0,1,1.821,1.72,6.18,6.18,0,0,1,.027,4.787,3.455,3.455,0,0,1-3.168,2.2,5.484,5.484,0,0,1-1.653-.133,3.194,3.194,0,0,1-2.35-2.333,6.325,6.325,0,0,1,.011-3.841,3.655,3.655,0,0,1,3.724-2.668C1044.706,93.453,1044.71,93.431,1044.715,93.41Zm-2.158,4.453c.062.527.1.922.159,1.312a2.432,2.432,0,0,0,.172.554,1.78,1.78,0,0,0,1.864,1.116,1.658,1.658,0,0,0,1.655-1.249,5.411,5.411,0,0,0-.009-3.195,1.861,1.861,0,0,0-3.534-.049A12.4,12.4,0,0,0,1042.557,97.863Z" transform="translate(-988.074 -59.249)" stroke="#000" stroke-width="1.4"/>
      <path id="Path_65" data-name="Path 65" d="M99.811,103.123H97.919v-.3q0-2.609-.007-5.22a3.7,3.7,0,0,0-.04-.478c-.11-.853-.588-1.1-1.379-1.057a4.024,4.024,0,0,0-1.879.7.4.4,0,0,0-.109.3q-.009,2.876,0,5.752v.309H92.61V94.571c.769-.109,1.478-.09,1.869.879l.472-.336a3.841,3.841,0,0,1,2.42-.825,4.308,4.308,0,0,1,.826.111,1.947,1.947,0,0,1,1.515,1.732,6.89,6.89,0,0,1,.1,1.107c.011,1.9.006,3.8.006,5.7C99.82,102.995,99.815,103.045,99.811,103.123Z" transform="translate(-88.085 -60.082)" stroke="#000" stroke-width="1.4"/>
      <path id="Path_66" data-name="Path 66" d="M633.709,103.108c-.061.006-.1.013-.142.014h-1.741V98.029a8.163,8.163,0,0,0-.044-.834,1.1,1.1,0,0,0-1.278-1.15,4.047,4.047,0,0,0-2,.71c-.064.039-.085.19-.085.289q-.008,2.877,0,5.755v.31H626.52V94.557c.836-.118,1.475-.044,1.85.88.085-.058.168-.11.246-.168a4.386,4.386,0,0,1,2.192-.975,3.376,3.376,0,0,1,1.639.217,1.985,1.985,0,0,1,1.179,1.733,10.783,10.783,0,0,1,.091,1.389c.011,1.741,0,3.482,0,5.223C633.722,102.937,633.714,103.02,633.709,103.108Z" transform="translate(-594.92 -60.068)" stroke="#000" stroke-width="1.4"/>
      <path id="Path_67" data-name="Path 67" d="M897.39,101.824l.262,1.576c-.389.075-.764.171-1.145.216a7.26,7.26,0,0,1-2.96-.21,2.911,2.911,0,0,1-2.079-2.1,6.991,6.991,0,0,1-.118-3.531,3.815,3.815,0,0,1,3.98-3.068,4.913,4.913,0,0,1,2.146.406c.187.088.254.172.166.379-.168.406-.308.82-.456,1.217a10,10,0,0,0-1.258-.287,3.846,3.846,0,0,0-1.23.051,1.871,1.871,0,0,0-1.407,1.509,5.341,5.341,0,0,0-.032,2.461,1.85,1.85,0,0,0,1.9,1.545,7.224,7.224,0,0,0,1.939-.124C897.186,101.847,897.276,101.84,897.39,101.824Z" transform="translate(-846.159 -60.483)" stroke="#000" stroke-width="1.4"/>
      <path id="Path_68" data-name="Path 68" d="M8.444,108.015H6.57V99.44H8.446Z" transform="translate(-6.408 -64.973)" stroke="#000" stroke-width="1.4"/>
      <path id="Path_69" data-name="Path 69" d="M817.35,99.38H819.2v8.576H817.35Z" transform="translate(-776.074 -64.915)" stroke="#000" stroke-width="1.4"/>
      <path id="Path_70" data-name="Path 70" d="M814.11,4.672A1.087,1.087,0,1,1,815.2,5.753a1.088,1.088,0,0,1-1.094-1.081Z" transform="translate(-772.998 26.027)" stroke="#000" stroke-width="1.4"/>
      <path id="Path_71" data-name="Path 71" d="M4.486,5.585a1.1,1.1,0,1,1,1.1-1.1A1.116,1.116,0,0,1,4.486,5.585Z" transform="translate(-3.39 26.207)" stroke="#000" stroke-width="1.4"/>
      <path id="Exclusion_2" data-name="Exclusion 2" d="M2.778,38.172a2.422,2.422,0,0,1-1.81-.5,2.519,2.519,0,0,1-.463-1.934l0-.044c0-.13.01-.264.01-.394,0-.1,0-.7,0-1.659C.509,13.487.51,3.477.518,3.037c0-.125,0-.255,0-.369A2.558,2.558,0,0,1,.968.838,2.318,2.318,0,0,1,2.762.149L2.918.138C3.537.09,51.557,0,54.767,0h.046a1.527,1.527,0,0,1,1.135.619,1.944,1.944,0,0,1,.466,1.247c0,.164,0,11.318,0,22.207v5.65c0,3.925,0,6.761,0,6.877a1.2,1.2,0,0,1-.408,1.072,1.676,1.676,0,0,1-1.186.461h-.007c-.154.016-6.313.024-17.812.024-14.521,0-33.116-.015-33.247-.024H3.725c-.04,0-.1,0-.184.009H3.517l-.043,0-.1.006C3.252,38.159,3.026,38.172,2.778,38.172Zm2.5-21.838V16.4c-.034,2.8-.192,16.756,0,16.936.109.1,11.658.137,21.515.137,11.778,0,24.314-.048,24.349-.137.065-.163,0-16.313,0-17Zm1.834-11a8.613,8.613,0,0,0-1.834.132.882.882,0,0,0-.021.392c.008.21.021.528.021,1.067V10.2H51.348V7.37c0-.019-.031-1.87-.006-2.028a2.713,2.713,0,0,1-.574.028c-.667,0-1.705-.036-1.715-.037Z" transform="translate(1.596 -18.113)" stroke="#000" stroke-width="1"/>
      <path id="Path_115" data-name="Path 115" d="M-23564.426-9169.8v2.7h23.852v-2.7Z" transform="translate(23574.977 9172.137)" stroke="#000" stroke-width="1"/>
      <path id="Path_116" data-name="Path 116" d="M-23564.426-9169.8v2.7h13.551v-2.7Z" transform="translate(23574.977 9178.137)" stroke="#000" stroke-width="1"/>
      <path id="Path_117" data-name="Path 117" d="M-23564.426-9169.8v6.9h9.852v-6.9Z" transform="translate(23604.977 9173.486)" stroke="#000" stroke-width="1"/>
    </g>
  </g>
</svg>
