<svg xmlns="http://www.w3.org/2000/svg" xmlns:xlink="http://www.w3.org/1999/xlink" width="150" height="150" viewBox="0 0 150 150">
  <defs>
    <clipPath id="clip-path">
      <rect id="Rectangle_48" data-name="Rectangle 48" width="101" height="29" transform="translate(0 0)" fill="none"/>
    </clipPath>
  </defs>
  <g id="ingenico_-_v01" data-name="ingenico - v01" transform="translate(-585 -283)">
    <g id="Group_49" data-name="Group 49" transform="translate(191 17)">
      <g id="Group_45" data-name="Group 45" transform="translate(344 161)">
        <g id="Group_28" data-name="Group 28" transform="translate(-284 -8.5)">
          <g id="Group_11881" data-name="Group 11881" transform="translate(334 113.074)">
            <circle id="Ellipse_69" data-name="Ellipse 69" cx="75" cy="75" r="75" transform="translate(0 0.426)" fill="#09f"/>
          </g>
        </g>
      </g>
    </g>
    <g id="Group_74" data-name="Group 74" transform="translate(77 156.213)">
      <g id="Layer_1" data-name="Layer 1" transform="translate(533 207.8)">
        <g id="Group_67" data-name="Group 67" transform="translate(0 4.2)" clip-path="url(#clip-path)">
          <path id="Path_61" data-name="Path 61" d="M270.5,115.936q.254-1.382.471-2.6c1.293.154,2.53.327,3.773.436a6.881,6.881,0,0,0,1.641-.076,2.292,2.292,0,0,0,2.206-2.433c.028-.371,0-.747,0-1.115a7.42,7.42,0,0,1-1.639.7c-3.391.547-6.515-.556-7.219-4.616a11.1,11.1,0,0,1,.233-5.514,6.516,6.516,0,0,1,6.1-4.54,28.57,28.57,0,0,1,5.415.514c.091.014.178.169.233.269.036.067.008.169.008.254v13.877a5.79,5.79,0,0,1-.423,2.394,5.287,5.287,0,0,1-4.129,3.047,13.908,13.908,0,0,1-5.857-.365C271.057,116.1,270.8,116.02,270.5,115.936Zm8.087-12.511c0-1.3-.007-2.593.006-3.888,0-.305-.1-.433-.406-.443-.677-.019-1.354-.1-2.023-.085a3.148,3.148,0,0,0-3.063,2.12,7.435,7.435,0,0,0-.025,5.21,2.82,2.82,0,0,0,2.438,1.94,4.672,4.672,0,0,0,2.733-.508.521.521,0,0,0,.347-.547C278.583,105.963,278.59,104.694,278.589,103.425Z" transform="translate(-246.696 -88.14)" fill="#fff"/>
          <path id="Path_62" data-name="Path 62" d="M92.62,10h56.6c.571,0,.572,0,.573.576,0,.521-.015,1.044.005,1.565.013.321-.11.438-.423.4a2.993,2.993,0,0,0-.338,0H92.62Z" transform="translate(-84.783 -9.269)" fill="#fff"/>
          <path id="Path_63" data-name="Path 63" d="M461.814,103.573H453.15a2.915,2.915,0,0,0,2.285,3.478,12.486,12.486,0,0,0,3.912.045c.516-.052,1.029-.135,1.608-.212.158.855.316,1.7.491,2.648-.618.114-1.2.254-1.79.325a17.444,17.444,0,0,1-4.676.063c-2.834-.417-4.29-1.765-4.845-4.569a12.56,12.56,0,0,1,.282-6.225,5.4,5.4,0,0,1,5.234-3.987,10.036,10.036,0,0,1,2.1.106,4.265,4.265,0,0,1,3.215,2.477A12.456,12.456,0,0,1,461.814,103.573Zm-3.295-2.421a4.026,4.026,0,0,0-.457-2.249,2.12,2.12,0,0,0-1.562-1.175,3.041,3.041,0,0,0-3.286,3.424Z" transform="translate(-411.808 -87.188)" fill="#fff"/>
          <path id="Path_64" data-name="Path 64" d="M1047.416,93.41a24.734,24.734,0,0,1,2.628.554,4.746,4.746,0,0,1,3.039,2.87,10.317,10.317,0,0,1,.045,7.988,5.765,5.765,0,0,1-5.287,3.671,9.152,9.152,0,0,1-2.757-.223,5.329,5.329,0,0,1-3.921-3.892,10.551,10.551,0,0,1,.019-6.409,6.1,6.1,0,0,1,6.212-4.452C1047.4,93.482,1047.408,93.446,1047.416,93.41Zm-3.6,7.43c.1.879.162,1.538.266,2.19a4.089,4.089,0,0,0,.287.924,2.969,2.969,0,0,0,3.109,1.862,2.766,2.766,0,0,0,2.762-2.084,9.018,9.018,0,0,0-.014-5.331,3.106,3.106,0,0,0-5.9-.082A20.6,20.6,0,0,0,1043.816,100.84Z" transform="translate(-952.618 -85.621)" fill="#fff"/>
          <path id="Path_65" data-name="Path 65" d="M104.626,109.031h-3.158v-.508q0-4.354-.011-8.711a6.177,6.177,0,0,0-.067-.8c-.184-1.423-.982-1.828-2.3-1.763a6.715,6.715,0,0,0-3.135,1.16.673.673,0,0,0-.182.5q-.015,4.8-.008,9.6v.515H92.61V94.761c1.284-.181,2.466-.151,3.118,1.467.267-.19.526-.376.787-.56a6.409,6.409,0,0,1,4.039-1.376,7.19,7.19,0,0,1,1.378.184,3.249,3.249,0,0,1,2.528,2.89,11.489,11.489,0,0,1,.169,1.848c.018,3.171.01,6.346.01,9.515C104.641,108.817,104.633,108.9,104.626,109.031Z" transform="translate(-84.774 -86.424)" fill="#fff"/>
          <path id="Path_66" data-name="Path 66" d="M638.516,109.015c-.1.01-.169.022-.238.023h-2.906v-8.5a13.666,13.666,0,0,0-.073-1.392,1.833,1.833,0,0,0-2.131-1.919,6.755,6.755,0,0,0-3.345,1.185c-.107.065-.141.316-.142.481q-.012,4.8-.006,9.6v.518H626.52V94.747c1.394-.2,2.461-.073,3.087,1.468.142-.1.28-.184.41-.281a7.319,7.319,0,0,1,3.658-1.627,5.636,5.636,0,0,1,2.736.362,3.311,3.311,0,0,1,1.966,2.891,17.976,17.976,0,0,1,.152,2.318c.017,2.9.008,5.81.006,8.715C638.538,108.73,638.523,108.868,638.516,109.015Z" transform="translate(-573.508 -86.412)" fill="#fff"/>
          <path id="Path_67" data-name="Path 67" d="M901.543,106.58c.146.877.286,1.718.438,2.629-.65.125-1.275.286-1.91.36a12.114,12.114,0,0,1-4.94-.351,4.857,4.857,0,0,1-3.469-3.5,11.667,11.667,0,0,1-.2-5.892,6.365,6.365,0,0,1,6.64-5.119,8.2,8.2,0,0,1,3.581.677c.312.147.423.287.277.633-.279.677-.514,1.368-.762,2.031a16.666,16.666,0,0,0-2.1-.478,6.415,6.415,0,0,0-2.052.085,3.121,3.121,0,0,0-2.348,2.517,8.908,8.908,0,0,0-.053,4.106,3.086,3.086,0,0,0,3.164,2.577,12.057,12.057,0,0,0,3.236-.206C901.2,106.619,901.354,106.607,901.543,106.58Z" transform="translate(-815.771 -86.811)" fill="#fff"/>
          <path id="Path_68" data-name="Path 68" d="M9.7,113.748H6.57V99.44H9.7Z" transform="translate(-6.014 -91.141)" fill="#fff"/>
          <path id="Path_69" data-name="Path 69" d="M817.35,99.38h3.08v14.311h-3.08Z" transform="translate(-748.191 -91.086)" fill="#fff"/>
          <path id="Path_70" data-name="Path 70" d="M814.11,5.4a1.815,1.815,0,1,1,1.825,1.8,1.815,1.815,0,0,1-1.825-1.8Z" transform="translate(-745.225 -3.392)" fill="#fff"/>
          <path id="Path_71" data-name="Path 71" d="M5.218,7.053A1.861,1.861,0,0,1,3.39,5.218,1.856,1.856,0,0,1,5.224,3.39,1.861,1.861,0,0,1,7.052,5.224,1.861,1.861,0,0,1,5.218,7.053Z" transform="translate(-3.103 -3.218)" fill="#fff"/>
        </g>
      </g>
      <g id="_211635_card_icon" data-name="211635_card_icon" transform="translate(526.475 66.786)">
        <path id="Path_107" data-name="Path 107" d="M78.923,96H35.128A3.13,3.13,0,0,0,32,99.128h0v29.494h0a3.137,3.137,0,0,0,3.128,3.128H78.923a3.137,3.137,0,0,0,3.128-3.162h0V99.162h0A3.137,3.137,0,0,0,78.923,96ZM37.039,99.575H77a1.485,1.485,0,0,1,1.464,1.341v4.234H35.575v-4.268A1.473,1.473,0,0,1,37.039,99.575Zm39.974,28.6H37.039a1.465,1.465,0,0,1-1.464-1.307V110.875h42.9v15.96A1.493,1.493,0,0,1,77.012,128.175Z" fill="#fff"/>
        <rect id="Rectangle_76" data-name="Rectangle 76" width="21.498" height="2.015" transform="translate(39.054 118.986)" fill="#fff"/>
        <rect id="Rectangle_77" data-name="Rectangle 77" width="10.749" height="1.344" transform="translate(39.054 123.017)" fill="#fff"/>
        <rect id="Rectangle_78" data-name="Rectangle 78" width="6.718" height="5.375" transform="translate(67.942 118.986)" fill="#fff"/>
      </g>
    </g>
  </g>
</svg>
